<svg width="64" height="64" viewBox="0 0 64 64" fill="none" xmlns="http://www.w3.org/2000/svg">
  <defs>
    <linearGradient id="bg" x1="8" y1="8" x2="56" y2="56" gradientUnits="userSpaceOnUse">
      <stop stop-color="#0EA5E9"/>
      <stop offset="1" stop-color="#10B981"/>
    </linearGradient>
  </defs>
  <rect x="4" y="4" width="56" height="56" rx="16" fill="url(#bg)"/>
  <path d="M32 16C23.163 16 16 23.163 16 32C16 40.837 23.163 48 32 48C40.837 48 48 40.837 48 32C48 23.163 40.837 16 32 16ZM32 20C38.6274 20 44 25.3726 44 32C44 38.6274 38.6274 44 32 44C25.3726 44 20 38.6274 20 32C20 25.3726 25.3726 20 32 20Z" fill="white" opacity="0.18"/>
  <path d="M28 18C28 16.8954 28.8954 16 30 16H34C35.1046 16 36 16.8954 36 18V28H46C47.1046 28 48 28.8954 48 30V34C48 35.1046 47.1046 36 46 36H36V46C36 47.1046 35.1046 48 34 48H30C28.8954 48 28 47.1046 28 46V36H18C16.8954 36 16 35.1046 16 34V30C16 28.8954 16.8954 28 18 28H28V18Z" fill="white"/>
</svg>
